<?xml version="1.0" encoding="UTF-8" standalone="no"?>
<!-- Created with Inkscape (http://www.inkscape.org/) -->

<svg
   width="189mm"
   height="115mm"
   viewBox="0 0 189 115"
   version="1.1"
   id="svg5"
   inkscape:version="1.2.2 (732a01da63, 2022-12-09)"
   sodipodi:docname="SWOL Logo.svg"
   xmlns:inkscape="http://www.inkscape.org/namespaces/inkscape"
   xmlns:sodipodi="http://sodipodi.sourceforge.net/DTD/sodipodi-0.dtd"
   xmlns="http://www.w3.org/2000/svg"
   xmlns:svg="http://www.w3.org/2000/svg">
  <sodipodi:namedview
     id="namedview7"
     pagecolor="#505050"
     bordercolor="#eeeeee"
     borderopacity="1"
     inkscape:showpageshadow="0"
     inkscape:pageopacity="0"
     inkscape:pagecheckerboard="0"
     inkscape:deskcolor="#505050"
     inkscape:document-units="mm"
     showgrid="false"
     inkscape:zoom="1.7469907"
     inkscape:cx="364.05459"
     inkscape:cy="224.67205"
     inkscape:window-width="1920"
     inkscape:window-height="1001"
     inkscape:window-x="-9"
     inkscape:window-y="-9"
     inkscape:window-maximized="1"
     inkscape:current-layer="layer1" />
  <defs
     id="defs2" />
  <g
     inkscape:label="Calque 1"
     inkscape:groupmode="layer"
     id="layer1">
    <rect
       style="fill:#ffffff;stroke-width:1.7668"
       id="rect689"
       width="185.31174"
       height="110.59362"
       x="1.9850129"
       y="2.2685843" />
    <path
       id="path616"
       style="stroke-width:1.47599"
       d="m 111.24068,13.25852 a 30.335958,30.335955 0 0 0 -12.641845,2.777294 c -1.688557,-1.079082 -5.324846,-1.868652 -11.068857,-1.742567 -1.566647,0.03443 -3.181805,0.118084 -5.178546,-4.95e-4 -6.756808,10.193325 -3.420322,19.388251 -6.274225,19.123507 -3.797195,-0.352255 -0.487089,-19.314902 -7.458384,-19.123507 -4.556435,-0.0565 -4.996322,19.147963 -6.824767,19.692241 -2.199916,0.654868 -1.268957,-20.9196 -5.321589,-19.692241 v 0.0076 L 52.185113,13.78521 c -2.473375,-0.165417 -4.519498,-0.478863 -9.009735,-0.350477 -3.092543,0.06278 -5.729967,0.234409 -16.975898,0.234476 -11.245786,7.6e-5 -20.3621651,6.455479 -20.3622278,14.418328 0.00238,7.926769 9.0413028,14.365584 20.2358978,14.414885 v -0.04766 c 0.590077,-0.06735 1.186843,-0.103245 1.785332,-0.104701 6.07697,5.7e-5 11.003588,3.341168 11.003489,7.462317 9.3e-5,4.121188 -4.926523,7.462251 -11.003489,7.462308 -6.077105,7.6e-5 -11.003581,-3.341025 -11.003487,-7.462308 9.01e-4,-0.728339 0.159122,-1.452797 0.469436,-2.15007 -5.709351,-5.880286 -8.5320889,-3.92514 -10.628922,0 -0.1383929,0.670334 -0.2090143,1.346718 -0.2113695,2.023739 1.42e-5,1.37026 0.2794882,2.694929 0.791406,3.953097 l -3.0599381,7.290755 1.448617,0.608058 2.5472441,-6.068752 c 0.5050186,0.807176 1.1136241,1.576218 1.8123685,2.300971 l 1.463854,4.571476 1.49679,-0.479263 -0.678348,-2.118118 c 3.897686,2.838248 9.421482,4.612777 15.552349,4.612758 11.804655,2.8e-5 21.374755,-6.568371 21.374835,-14.670982 -8e-5,-8.102545 -8.724704,-15.34396 -20.529357,-15.343932 -1.315546,-0.04918 -1.869356,-0.09503 -2.63081,-0.174016 v -0.02264 c -0.210512,0.0086 -0.421201,0.01218 -0.632141,0.01275 -5.797435,-4.8e-5 -10.497534,-2.831467 -10.497676,-6.323869 -1.96e-4,-3.492603 4.700003,-6.323841 10.497676,-6.323879 16.20914,0.249828 18.670652,-0.367694 31.185806,-1.871353 0.329366,8.275191 1.345332,23.191626 4.400904,22.395797 4.213063,-1.097241 5.230779,-17.483262 7.93716,-17.385857 2.706409,0.09741 2.461862,13.616736 8.142138,17.247731 3.435331,-0.501569 4.8574,-17.175733 7.203267,-19.970454 1.858738,-2.21443 4.130264,-0.805407 6.44479,-0.924624 0.09866,-0.0048 0.189502,-0.01332 0.286584,-0.01912 A 30.335958,30.335955 0 0 0 80.904291,43.59466 30.335958,30.335955 0 0 0 111.24068,73.930572 30.335958,30.335955 0 0 0 141.57659,43.59466 30.335958,30.335955 0 0 0 135.83915,25.847025 c 2.80947,1.446872 5.39994,2.625889 7.39104,3.22608 4.22083,5.882931 0.72421,25.031446 4.74007,28.446362 9.7611,8.300437 36.02911,0 36.02911,0 v -8.771823 c 0,0 -14.18502,2.715266 -21.24064,-4.164952 -7.05562,-6.880228 -0.31741,-19.96663 -5.41449,-24.550291 -4.37831,-3.937278 -32.98463,-5.869196 -40.98252,-6.337139 a 30.335958,30.335955 0 0 0 -5.12104,-0.436505 z m 0.38833,7.815742 a 19.055776,22.804454 0 0 1 19.05568,22.80428 19.055776,22.804454 0 0 1 -19.05568,22.80428 19.055776,22.804454 0 0 1 -19.056155,-22.80428 19.055776,22.804454 0 0 1 19.056155,-22.80428 z M 8.9370055,46.846566 a 1.2294949,1.2294949 0 0 1 1.2293825,1.229375 1.2294949,1.2294949 0 0 1 -1.2293825,1.229384 1.2294949,1.2294949 0 0 1 -1.2298736,-1.229384 1.2294949,1.2294949 0 0 1 1.2298736,-1.229375 z m 2.9036235,0.07819 a 1.2294949,1.2294949 0 0 1 1.229383,1.229879 1.2294949,1.2294949 0 0 1 -1.229383,1.22889 1.2294949,1.2294949 0 0 1 -1.229874,-1.22889 1.2294949,1.2294949 0 0 1 1.229874,-1.229879 z" />
    <g
       aria-label="Slow, Weird, One-Line"
       id="text745"
       style="font-weight:bold;font-size:12.5453px;font-family:Consolas;-inkscape-font-specification:'Consolas Bold';stroke-width:0.886302"
       transform="matrix(0.95121951,0,0,0.95121951,-7.4559054,-89.173458)">
      <path
         d="m 40.83508,181.60862 q 0,0.65544 -0.245025,1.13937 -0.2389,0.48392 -0.67382,0.80245 -0.43492,0.31241 -1.035232,0.46555 -0.600312,0.15314 -1.310886,0.15314 -0.63094,0 -1.219001,-0.0735 -0.588061,-0.0735 -1.163871,-0.24503 v -1.48853 q 0.28178,0.098 0.588061,0.18377 0.306282,0.0858 0.612564,0.15314 0.312407,0.0613 0.618689,0.098 0.306282,0.0368 0.594186,0.0368 0.428795,0 0.728951,-0.0735 0.300156,-0.0735 0.490051,-0.20215 0.189894,-0.12864 0.275653,-0.30628 0.08576,-0.17764 0.08576,-0.39204 0,-0.29403 -0.171518,-0.49005 -0.165392,-0.20215 -0.441045,-0.35529 -0.275654,-0.15314 -0.630941,-0.27565 -0.349161,-0.12251 -0.716699,-0.2634 -0.361412,-0.14089 -0.716699,-0.31854 -0.349161,-0.17764 -0.624815,-0.44104 -0.275654,-0.2634 -0.447171,-0.62482 -0.165392,-0.36754 -0.165392,-0.88209 0,-0.47167 0.171517,-0.89434 0.171518,-0.42267 0.539056,-0.73508 0.367538,-0.31853 0.943348,-0.5023 0.57581,-0.18989 1.390519,-0.18989 0.2389,0 0.496176,0.0245 0.263403,0.0184 0.514554,0.0551 0.257276,0.0306 0.49005,0.0796 0.2389,0.0429 0.43492,0.0919 v 1.37826 q -0.19602,-0.0735 -0.428794,-0.13476 -0.232774,-0.0613 -0.483925,-0.10414 -0.245025,-0.049 -0.496176,-0.0735 -0.251152,-0.0245 -0.4778,-0.0245 -0.398166,0 -0.67382,0.0674 -0.275653,0.0613 -0.453297,0.17764 -0.177643,0.11026 -0.257276,0.27565 -0.07963,0.1654 -0.07963,0.36754 0,0.25115 0.165392,0.43492 0.171518,0.17765 0.447172,0.32466 0.281779,0.14089 0.63094,0.26953 0.355287,0.12251 0.722825,0.26953 0.373664,0.14089 0.722825,0.32465 0.355287,0.18377 0.63094,0.44718 0.281779,0.2634 0.447172,0.62481 0.171517,0.35529 0.171517,0.84534 z"
         id="path899" />
      <path
         d="m 44.345069,176.53659 h -1.758057 v -1.16387 h 3.289465 v 7.49165 h 1.794811 v 1.16387 h -5.298674 v -1.16387 h 1.972455 z"
         id="path901" />
      <path
         d="m 54.83828,180.86742 q 0,0.73507 -0.208271,1.34764 -0.208272,0.60643 -0.600312,1.04135 -0.392041,0.43492 -0.961725,0.67382 -0.569684,0.2389 -1.298634,0.2389 -0.692197,0 -1.237379,-0.20214 -0.545181,-0.20215 -0.92497,-0.60031 -0.37979,-0.4043 -0.581936,-1.00461 -0.202146,-0.60644 -0.202146,-1.40889 0,-0.74121 0.208272,-1.34764 0.214397,-0.60644 0.606438,-1.03524 0.398166,-0.42879 0.96785,-0.66156 0.569684,-0.2389 1.286383,-0.2389 0.698323,0 1.243504,0.20827 0.545182,0.20214 0.924971,0.60643 0.379789,0.4043 0.57581,1.00461 0.202145,0.59419 0.202145,1.37827 z m -1.555911,0.0367 q 0,-0.96785 -0.367538,-1.45177 -0.361412,-0.49006 -1.071986,-0.49006 -0.39204,0 -0.667694,0.15315 -0.275654,0.15314 -0.453297,0.42266 -0.177643,0.26341 -0.263402,0.61869 -0.07963,0.35529 -0.07963,0.75958 0,0.97398 0.39204,1.47015 0.392041,0.49005 1.071986,0.49005 0.373664,0 0.649317,-0.14701 0.275654,-0.15314 0.447172,-0.41654 0.171518,-0.26953 0.257276,-0.63094 0.08576,-0.36142 0.08576,-0.77796 z"
         id="path903" />
      <path
         d="m 61.239568,184.02824 h -1.660047 l -0.661569,-1.97245 -0.202146,-0.68607 -0.202145,0.70445 -0.637066,1.95407 h -1.666173 l -0.882091,-6.22364 h 1.421147 l 0.447171,3.51611 0.104136,0.96173 0.251151,-0.86372 0.624815,-1.89282 h 1.139368 l 0.667694,1.88057 0.287905,0.88822 0.116387,-0.98623 0.373663,-3.50386 h 1.353766 z"
         id="path905" />
      <path
         d="m 63.469299,185.21049 q 0.367538,0.0122 0.686071,-0.0429 0.318533,-0.0551 0.551307,-0.17764 0.2389,-0.11639 0.373664,-0.30016 0.134764,-0.18377 0.134764,-0.43492 0,-0.17764 -0.05513,-0.30015 -0.04901,-0.12864 -0.128638,-0.22665 -0.07963,-0.10414 -0.171518,-0.19602 -0.08576,-0.098 -0.165392,-0.20215 -0.07963,-0.11026 -0.134764,-0.24502 -0.04901,-0.14089 -0.04901,-0.33691 0,-0.1899 0.06738,-0.36754 0.06738,-0.18377 0.19602,-0.32466 0.128639,-0.14089 0.312408,-0.22665 0.189894,-0.0858 0.428794,-0.0858 0.300156,0 0.539056,0.14089 0.2389,0.13477 0.404292,0.37367 0.165392,0.23277 0.251151,0.53905 0.08576,0.30016 0.08576,0.63094 0,0.56969 -0.208272,1.07199 -0.208271,0.5023 -0.624815,0.87596 -0.416543,0.37367 -1.041357,0.58806 -0.61869,0.22053 -1.451776,0.22053 z"
         id="path907" />
      <path
         d="m 82.219865,184.02824 h -1.770308 l -0.790207,-2.46863 -0.287905,-1.0046 -0.275654,1.02911 -0.777955,2.44412 h -1.696801 l -0.447171,-8.0062 h 1.329262 l 0.189895,5.13328 0.049,1.40277 0.361413,-1.24963 0.882091,-2.84842 h 0.949473 l 0.931097,3.01994 0.300156,1.06586 0.0245,-1.24963 0.202146,-5.27417 h 1.280258 z"
         id="path909" />
      <path
         d="m 89.141832,180.43862 q 0,0.15314 -0.01225,0.39817 -0.0061,0.24502 -0.0245,0.45942 h -4.091924 q 0,0.41042 0.122512,0.72283 0.128639,0.3124 0.355287,0.5268 0.232774,0.20827 0.551307,0.31853 0.324659,0.11026 0.7167,0.11026 0.453296,0 0.96785,-0.0674 0.520679,-0.0735 1.078111,-0.23277 v 1.18837 q -0.238899,0.0674 -0.520678,0.12251 -0.28178,0.0551 -0.57581,0.098 -0.294031,0.0429 -0.594187,0.0613 -0.300156,0.0245 -0.581935,0.0245 -0.710574,0 -1.274132,-0.20214 -0.563558,-0.20215 -0.955599,-0.59419 -0.392041,-0.39817 -0.600312,-0.9801 -0.208272,-0.58194 -0.208272,-1.34764 0,-0.75958 0.208272,-1.37827 0.208271,-0.62481 0.588061,-1.06586 0.379789,-0.44717 0.918845,-0.68607 0.545181,-0.24502 1.212876,-0.24502 0.661568,0 1.169996,0.20827 0.508427,0.20214 0.851463,0.56968 0.343036,0.36754 0.520679,0.87597 0.177643,0.50842 0.177643,1.11486 z m -1.519157,-0.2144 q 0.0061,-0.36753 -0.09189,-0.63706 -0.09801,-0.27565 -0.269527,-0.4533 -0.165393,-0.17764 -0.392041,-0.2634 -0.220523,-0.0858 -0.4778,-0.0858 -0.563558,0 -0.92497,0.37979 -0.361413,0.37366 -0.428795,1.05973 z"
         id="path911" />
      <path
         d="m 94.28124,176.10167 q 0,0.20215 -0.07351,0.37979 -0.07351,0.17765 -0.208271,0.31241 -0.128639,0.12864 -0.306282,0.20827 -0.177643,0.0735 -0.385915,0.0735 -0.208271,0 -0.392041,-0.0735 -0.177643,-0.0796 -0.312407,-0.20827 -0.128638,-0.13476 -0.202146,-0.31241 -0.07351,-0.17764 -0.07351,-0.37979 0,-0.20214 0.07351,-0.37979 0.07351,-0.17764 0.202146,-0.3124 0.134764,-0.13477 0.312407,-0.20828 0.18377,-0.0796 0.392041,-0.0796 0.208272,0 0.385915,0.0796 0.177643,0.0735 0.306282,0.20828 0.134764,0.13476 0.208271,0.3124 0.07351,0.17765 0.07351,0.37979 z m -1.653921,2.8668 h -1.758057 v -1.16387 h 3.289465 v 5.05977 h 1.794811 v 1.16387 h -5.298674 v -1.16387 h 1.972455 z"
         id="path913" />
      <path
         d="m 101.52174,180.22422 q 0.0123,-0.34916 -0.0367,-0.59418 -0.0429,-0.24503 -0.14702,-0.40429 -0.098,-0.15927 -0.24502,-0.23278 -0.14702,-0.0735 -0.33691,-0.0735 -0.33079,0 -0.68608,0.27566 -0.349156,0.26953 -0.771825,0.89434 v 3.93878 h -1.531409 v -6.22364 h 1.353766 l 0.05513,0.90659 q 0.153141,-0.2389 0.343036,-0.42879 0.19602,-0.1899 0.428794,-0.32466 0.238898,-0.14089 0.526808,-0.2144 0.2879,-0.0735 0.63094,-0.0735 0.47167,0 0.83308,0.16539 0.36754,0.15926 0.61257,0.4778 0.25115,0.31853 0.36753,0.80246 0.12252,0.47779 0.10414,1.10873 z"
         id="path915" />
      <path
         d="m 108.32732,184.02824 -0.0368,-0.91884 q -0.19602,0.2389 -0.40429,0.43492 -0.20827,0.19602 -0.44717,0.33691 -0.2389,0.13476 -0.51455,0.20827 -0.26953,0.0796 -0.60032,0.0796 -0.5513,0 -0.9801,-0.22052 -0.42879,-0.22052 -0.72282,-0.62481 -0.28791,-0.41042 -0.44105,-0.99236 -0.15314,-0.58193 -0.15314,-1.29863 0,-0.85759 0.2389,-1.4824 0.24503,-0.63095 0.67382,-1.04136 0.4288,-0.41655 1.01686,-0.61257 0.58806,-0.20214 1.28025,-0.20214 0.23278,0 0.46555,0.0306 0.2389,0.0306 0.42267,0.0796 v -2.43188 h 1.49466 v 8.65552 z m -2.73204,-3.06281 q 0,0.51455 0.0674,0.88209 0.0735,0.36141 0.20827,0.59418 0.14089,0.23278 0.34303,0.34304 0.20215,0.10414 0.45943,0.10414 0.37978,0 0.72282,-0.30629 0.34304,-0.30628 0.72895,-0.83921 v -2.71978 q -0.17764,-0.0674 -0.44104,-0.11026 -0.25728,-0.0429 -0.52068,-0.0429 -0.36142,0 -0.64932,0.14701 -0.28791,0.14702 -0.49618,0.41655 -0.20214,0.26953 -0.3124,0.66157 -0.11027,0.38591 -0.11027,0.86984 z"
         id="path917" />
      <path
         d="m 111.75155,185.21049 q 0.36754,0.0122 0.68607,-0.0429 0.31853,-0.0551 0.55131,-0.17764 0.2389,-0.11639 0.37366,-0.30016 0.13477,-0.18377 0.13477,-0.43492 0,-0.17764 -0.0551,-0.30015 -0.049,-0.12864 -0.12864,-0.22665 -0.0796,-0.10414 -0.17152,-0.19602 -0.0858,-0.098 -0.16539,-0.20215 -0.0796,-0.11026 -0.13477,-0.24502 -0.049,-0.14089 -0.049,-0.33691 0,-0.1899 0.0674,-0.36754 0.0674,-0.18377 0.19602,-0.32466 0.12864,-0.14089 0.31241,-0.22665 0.18989,-0.0858 0.42879,-0.0858 0.30016,0 0.53906,0.14089 0.2389,0.13477 0.40429,0.37367 0.16539,0.23277 0.25115,0.53905 0.0858,0.30016 0.0858,0.63094 0,0.56969 -0.20827,1.07199 -0.20827,0.5023 -0.62482,0.87596 -0.41654,0.37367 -1.04135,0.58806 -0.61869,0.22053 -1.45178,0.22053 z"
         id="path919" />
      <path
         d="m 130.92479,179.99145 q 0,1.09036 -0.25728,1.88057 -0.25115,0.79021 -0.69832,1.29864 -0.44105,0.50842 -1.04136,0.75345 -0.59419,0.24502 -1.27413,0.24502 -1.58042,0 -2.37675,-1.04748 -0.79633,-1.05361 -0.79633,-3.05669 0,-1.09036 0.25115,-1.88057 0.25728,-0.79021 0.69832,-1.29864 0.44717,-0.50842 1.04136,-0.75345 0.60031,-0.24502 1.28026,-0.24502 1.58041,0 2.37674,1.04748 0.79634,1.04748 0.79634,3.05669 z m -1.59267,0.0735 q 0,-1.42115 -0.37979,-2.11947 -0.37979,-0.69832 -1.24963,-0.69832 -0.43492,0 -0.7412,0.18377 -0.30628,0.17764 -0.50843,0.5268 -0.19602,0.34916 -0.2879,0.86371 -0.0919,0.50843 -0.0919,1.17 0,1.42115 0.37979,2.11947 0.38592,0.69832 1.24963,0.69832 0.43492,0 0.74121,-0.17764 0.3124,-0.18377 0.50842,-0.53293 0.19602,-0.34916 0.28791,-0.85759 0.0919,-0.51455 0.0919,-1.17612 z"
         id="path921" />
      <path
         d="m 135.71503,184.02824 v -4.05517 q 0,-1.02298 -0.75958,-1.02298 -0.37979,0 -0.72895,0.30628 -0.34303,0.30629 -0.72895,0.83309 v 3.93878 h -1.49465 v -6.22364 h 1.2925 l 0.0368,0.91884 q 0.18989,-0.2389 0.39204,-0.43492 0.20827,-0.19602 0.44717,-0.33078 0.2389,-0.14089 0.51455,-0.2144 0.27566,-0.0735 0.61869,-0.0735 0.4778,0 0.83309,0.15926 0.35529,0.15314 0.59419,0.44105 0.23889,0.28178 0.35528,0.68607 0.12251,0.39816 0.12251,0.89434 v 4.17768 z"
         id="path923" />
      <path
         d="m 144.32155,180.43862 q 0,0.15314 -0.0122,0.39817 -0.006,0.24502 -0.0245,0.45942 h -4.09193 q 0,0.41042 0.12252,0.72283 0.12863,0.3124 0.35528,0.5268 0.23278,0.20827 0.55131,0.31853 0.32466,0.11026 0.7167,0.11026 0.4533,0 0.96785,-0.0674 0.52068,-0.0735 1.07811,-0.23277 v 1.18837 q -0.2389,0.0674 -0.52068,0.12251 -0.28178,0.0551 -0.57581,0.098 -0.29403,0.0429 -0.59418,0.0613 -0.30016,0.0245 -0.58194,0.0245 -0.71057,0 -1.27413,-0.20214 -0.56356,-0.20215 -0.9556,-0.59419 -0.39204,-0.39817 -0.60031,-0.9801 -0.20827,-0.58194 -0.20827,-1.34764 0,-0.75958 0.20827,-1.37827 0.20827,-0.62481 0.58806,-1.06586 0.37979,-0.44717 0.91884,-0.68607 0.54518,-0.24502 1.21288,-0.24502 0.66157,0 1.16999,0.20827 0.50843,0.20214 0.85147,0.56968 0.34303,0.36754 0.52068,0.87597 0.17764,0.50842 0.17764,1.11486 z m -1.51916,-0.2144 q 0.006,-0.36753 -0.0919,-0.63706 -0.098,-0.27565 -0.26953,-0.4533 -0.16539,-0.17764 -0.39204,-0.2634 -0.22052,-0.0858 -0.4778,-0.0858 -0.56356,0 -0.92497,0.37979 -0.36141,0.37366 -0.42879,1.05973 z"
         id="path925" />
      <path
         d="m 146.49002,181.35747 v -1.32927 h 3.81015 v 1.32927 z"
         id="path927" />
      <path
         d="m 153.05057,184.02824 v -8.0062 h 1.53141 v 6.7137 h 3.38135 v 1.2925 z"
         id="path929" />
      <path
         d="m 163.25588,176.10167 q 0,0.20215 -0.0735,0.37979 -0.0735,0.17765 -0.20828,0.31241 -0.12863,0.12864 -0.30628,0.20827 -0.17764,0.0735 -0.38591,0.0735 -0.20827,0 -0.39204,-0.0735 -0.17765,-0.0796 -0.31241,-0.20827 -0.12864,-0.13476 -0.20215,-0.31241 -0.0735,-0.17764 -0.0735,-0.37979 0,-0.20214 0.0735,-0.37979 0.0735,-0.17764 0.20215,-0.3124 0.13476,-0.13477 0.31241,-0.20828 0.18377,-0.0796 0.39204,-0.0796 0.20827,0 0.38591,0.0796 0.17765,0.0735 0.30628,0.20828 0.13477,0.13476 0.20828,0.3124 0.0735,0.17765 0.0735,0.37979 z m -1.65392,2.8668 h -1.75805 v -1.16387 h 3.28946 v 5.05977 h 1.79481 v 1.16387 h -5.29867 v -1.16387 h 1.97245 z"
         id="path931" />
      <path
         d="m 170.20235,184.02824 v -4.05517 q 0,-1.02298 -0.75958,-1.02298 -0.37979,0 -0.72895,0.30628 -0.34304,0.30629 -0.72895,0.83309 v 3.93878 h -1.49465 v -6.22364 h 1.2925 l 0.0368,0.91884 q 0.18989,-0.2389 0.39204,-0.43492 0.20827,-0.19602 0.44717,-0.33078 0.2389,-0.14089 0.51455,-0.2144 0.27566,-0.0735 0.61869,-0.0735 0.4778,0 0.83309,0.15926 0.35529,0.15314 0.59419,0.44105 0.23889,0.28178 0.35528,0.68607 0.12251,0.39816 0.12251,0.89434 v 4.17768 z"
         id="path933" />
      <path
         d="m 178.80886,180.43862 q 0,0.15314 -0.0123,0.39817 -0.006,0.24502 -0.0245,0.45942 h -4.09192 q 0,0.41042 0.12251,0.72283 0.12864,0.3124 0.35528,0.5268 0.23278,0.20827 0.55131,0.31853 0.32466,0.11026 0.7167,0.11026 0.4533,0 0.96785,-0.0674 0.52068,-0.0735 1.07811,-0.23277 v 1.18837 q -0.2389,0.0674 -0.52068,0.12251 -0.28178,0.0551 -0.57581,0.098 -0.29403,0.0429 -0.59418,0.0613 -0.30016,0.0245 -0.58194,0.0245 -0.71057,0 -1.27413,-0.20214 -0.56356,-0.20215 -0.9556,-0.59419 -0.39204,-0.39817 -0.60031,-0.9801 -0.20827,-0.58194 -0.20827,-1.34764 0,-0.75958 0.20827,-1.37827 0.20827,-0.62481 0.58806,-1.06586 0.37979,-0.44717 0.91885,-0.68607 0.54518,-0.24502 1.21287,-0.24502 0.66157,0 1.17,0.20827 0.50842,0.20214 0.85146,0.56968 0.34304,0.36754 0.52068,0.87597 0.17764,0.50842 0.17764,1.11486 z m -1.51915,-0.2144 q 0.006,-0.36753 -0.0919,-0.63706 -0.098,-0.27565 -0.26953,-0.4533 -0.16539,-0.17764 -0.39204,-0.2634 -0.22052,-0.0858 -0.4778,-0.0858 -0.56356,0 -0.92497,0.37979 -0.36141,0.37366 -0.42879,1.05973 z"
         id="path935" />
    </g>
    <g
       aria-label="...and a mispelling of SLOW!"
       id="text940"
       style="font-weight:bold;font-size:9.06176px;font-family:Consolas;-inkscape-font-specification:'Consolas Bold';stroke-width:0.6402"
       transform="matrix(0.95121951,0,0,0.95121951,-7.4559054,-89.173458)">
      <path
         d="m 39.68197,194.95175 q 0.185836,0 0.345125,0.0708 0.159289,0.0664 0.274331,0.18584 0.119466,0.11504 0.185837,0.27433 0.06637,0.15929 0.06637,0.3407 0,0.17699 -0.06637,0.33628 -0.06637,0.15486 -0.185837,0.27433 -0.115042,0.11504 -0.274331,0.18141 -0.159289,0.0708 -0.345125,0.0708 -0.176988,0 -0.331852,-0.0708 -0.154864,-0.0664 -0.269906,-0.18141 -0.115042,-0.11947 -0.181412,-0.27433 -0.06637,-0.15929 -0.06637,-0.33628 0,-0.18141 0.06637,-0.3407 0.06637,-0.15929 0.181412,-0.27433 0.115042,-0.11947 0.269906,-0.18584 0.154864,-0.0708 0.331852,-0.0708 z"
         id="path942" />
      <path
         d="m 44.664168,194.95175 q 0.185837,0 0.345125,0.0708 0.159289,0.0664 0.274331,0.18584 0.119467,0.11504 0.185837,0.27433 0.06637,0.15929 0.06637,0.3407 0,0.17699 -0.06637,0.33628 -0.06637,0.15486 -0.185837,0.27433 -0.115042,0.11504 -0.274331,0.18141 -0.159288,0.0708 -0.345125,0.0708 -0.176988,0 -0.331852,-0.0708 -0.154864,-0.0664 -0.269906,-0.18141 -0.115042,-0.11947 -0.181412,-0.27433 -0.06637,-0.15929 -0.06637,-0.33628 0,-0.18141 0.06637,-0.3407 0.06637,-0.15929 0.181412,-0.27433 0.115042,-0.11947 0.269906,-0.18584 0.154864,-0.0708 0.331852,-0.0708 z"
         id="path944" />
      <path
         d="m 49.646366,194.95175 q 0.185837,0 0.345126,0.0708 0.159288,0.0664 0.27433,0.18584 0.119467,0.11504 0.185837,0.27433 0.06637,0.15929 0.06637,0.3407 0,0.17699 -0.06637,0.33628 -0.06637,0.15486 -0.185837,0.27433 -0.115042,0.11504 -0.27433,0.18141 -0.159289,0.0708 -0.345126,0.0708 -0.176987,0 -0.331851,-0.0708 -0.154865,-0.0664 -0.269906,-0.18141 -0.115042,-0.11947 -0.181413,-0.27433 -0.06637,-0.15929 -0.06637,-0.33628 0,-0.18141 0.06637,-0.3407 0.06637,-0.15929 0.181413,-0.27433 0.115041,-0.11947 0.269906,-0.18584 0.154864,-0.0708 0.331851,-0.0708 z"
         id="path946" />
      <path
         d="m 55.59757,196.58446 -0.02655,-0.58849 q -0.14159,0.15044 -0.296454,0.27876 -0.154864,0.12389 -0.340701,0.21681 -0.185837,0.0929 -0.407071,0.14159 -0.21681,0.0531 -0.477866,0.0531 -0.345126,0 -0.606182,-0.10177 -0.261057,-0.10177 -0.438044,-0.28318 -0.176988,-0.18141 -0.269906,-0.43805 -0.08849,-0.25663 -0.08849,-0.56636 0,-0.31857 0.13274,-0.58848 0.137166,-0.26991 0.411496,-0.46459 0.278756,-0.19469 0.690252,-0.30531 0.41592,-0.11061 0.973431,-0.11061 h 0.588483 v -0.26991 q 0,-0.17256 -0.04867,-0.30973 -0.04867,-0.14159 -0.159289,-0.23893 -0.106192,-0.0973 -0.278755,-0.15044 -0.172563,-0.0531 -0.42477,-0.0531 -0.398222,0 -0.787595,0.0929 -0.384947,0.0885 -0.747772,0.25221 v -0.86281 q 0.323002,-0.12832 0.743348,-0.21239 0.42477,-0.0841 0.880512,-0.0841 0.49999,0 0.85839,0.0973 0.3584,0.0929 0.588483,0.28318 0.234509,0.19027 0.345126,0.47787 0.110617,0.28318 0.110617,0.6637 v 3.07074 z m -0.154864,-1.98669 h -0.659278 q -0.274331,0 -0.464592,0.0531 -0.190262,0.0531 -0.309728,0.14601 -0.119467,0.0929 -0.176988,0.21681 -0.0531,0.11947 -0.0531,0.25664 0,0.27433 0.176987,0.42034 0.176988,0.14159 0.482291,0.14159 0.225659,0 0.469017,-0.16371 0.243358,-0.16372 0.535387,-0.46902 z"
         id="path948" />
      <path
         d="m 60.442604,196.58446 v -2.92915 q 0,-0.73892 -0.548661,-0.73892 -0.274331,0 -0.526538,0.22124 -0.247783,0.22123 -0.526538,0.60175 v 2.84508 h -1.079624 v -4.49549 h 0.933609 l 0.02655,0.66371 q 0.137166,-0.17256 0.28318,-0.31415 0.15044,-0.14159 0.323003,-0.23894 0.172562,-0.10177 0.371673,-0.15486 0.199111,-0.0531 0.446894,-0.0531 0.345125,0 0.601757,0.11504 0.256632,0.11062 0.429195,0.31858 0.172563,0.20354 0.256632,0.49557 0.08849,0.2876 0.08849,0.646 v 3.01764 z"
         id="path950" />
      <path
         d="m 65.570817,196.58446 -0.02655,-0.66371 q -0.14159,0.17257 -0.292029,0.31416 -0.15044,0.14159 -0.323002,0.24335 -0.172563,0.0974 -0.371674,0.15044 -0.194686,0.0575 -0.43362,0.0575 -0.398221,0 -0.70795,-0.15929 -0.309728,-0.15929 -0.522113,-0.45132 -0.20796,-0.29646 -0.318577,-0.7168 -0.110617,-0.42035 -0.110617,-0.93803 0,-0.61946 0.172562,-1.07078 0.176988,-0.45574 0.486716,-0.7522 0.309728,-0.30087 0.734498,-0.44246 0.42477,-0.14602 0.92476,-0.14602 0.168138,0 0.336276,0.0221 0.172563,0.0221 0.305304,0.0575 v -1.7566 h 1.079623 v 6.25209 z m -1.97341,-2.21235 q 0,0.37168 0.04867,0.63716 0.0531,0.26106 0.15044,0.42919 0.101767,0.16814 0.247782,0.24779 0.146015,0.0752 0.331852,0.0752 0.27433,0 0.522113,-0.22124 0.247782,-0.22123 0.526538,-0.60618 v -1.96456 q -0.128316,-0.0487 -0.318578,-0.0797 -0.185837,-0.031 -0.376098,-0.031 -0.261057,0 -0.469017,0.10619 -0.207961,0.1062 -0.3584,0.30088 -0.146015,0.19469 -0.225659,0.47787 -0.07964,0.27875 -0.07964,0.6283 z"
         id="path952" />
      <path
         d="m 75.526365,196.58446 -0.02655,-0.58849 q -0.14159,0.15044 -0.296454,0.27876 -0.154864,0.12389 -0.340701,0.21681 -0.185837,0.0929 -0.407071,0.14159 -0.21681,0.0531 -0.477866,0.0531 -0.345126,0 -0.606183,-0.10177 -0.261056,-0.10177 -0.438044,-0.28318 -0.176987,-0.18141 -0.269906,-0.43805 -0.08849,-0.25663 -0.08849,-0.56636 0,-0.31857 0.13274,-0.58848 0.137166,-0.26991 0.411496,-0.46459 0.278756,-0.19469 0.690252,-0.30531 0.41592,-0.11061 0.973431,-0.11061 h 0.588483 v -0.26991 q 0,-0.17256 -0.04867,-0.30973 -0.04867,-0.14159 -0.159289,-0.23893 -0.106193,-0.0973 -0.278755,-0.15044 -0.172563,-0.0531 -0.42477,-0.0531 -0.398222,0 -0.787595,0.0929 -0.384948,0.0885 -0.747772,0.25221 v -0.86281 q 0.323002,-0.12832 0.743348,-0.21239 0.42477,-0.0841 0.880512,-0.0841 0.49999,0 0.85839,0.0973 0.358399,0.0929 0.588483,0.28318 0.234509,0.19027 0.345126,0.47787 0.110617,0.28318 0.110617,0.6637 v 3.07074 z m -0.154864,-1.98669 h -0.659278 q -0.274331,0 -0.464592,0.0531 -0.190262,0.0531 -0.309729,0.14601 -0.119466,0.0929 -0.176987,0.21681 -0.0531,0.11947 -0.0531,0.25664 0,0.27433 0.176987,0.42034 0.176988,0.14159 0.482291,0.14159 0.225659,0 0.469017,-0.16371 0.243358,-0.16372 0.535387,-0.46902 z"
         id="path954" />
      <path
         d="m 85.844734,196.58446 v -3.06189 q 0,-0.16813 -0.0089,-0.29203 -0.0088,-0.12831 -0.0354,-0.21238 -0.02655,-0.0841 -0.07964,-0.12389 -0.04867,-0.0443 -0.137166,-0.0443 -0.137165,0 -0.269906,0.18584 -0.13274,0.18583 -0.300878,0.63273 v 2.91587 h -0.92476 v -3.06189 q 0,-0.16813 -0.0088,-0.29203 -0.0088,-0.12831 -0.0354,-0.21238 -0.02655,-0.0841 -0.07964,-0.12389 -0.0531,-0.0443 -0.14159,-0.0443 -0.115042,0 -0.256632,0.18584 -0.14159,0.18583 -0.314153,0.63273 v 2.91587 H 82.31826 v -4.49549 h 0.800868 l 0.0177,0.65486 q 0.09734,-0.19911 0.194686,-0.3407 0.09734,-0.14159 0.207961,-0.23009 0.110617,-0.0929 0.234508,-0.13274 0.128316,-0.0398 0.287605,-0.0398 0.376098,0 0.570784,0.19911 0.199111,0.19469 0.22566,0.54424 0.106192,-0.19911 0.20796,-0.3407 0.106192,-0.14159 0.21681,-0.23009 0.115041,-0.0929 0.243357,-0.13274 0.132741,-0.0398 0.29203,-0.0398 0.49114,0 0.725648,0.34513 0.234509,0.3407 0.234509,1.01325 v 3.2256 z"
         id="path956" />
      <path
         d="m 90.300397,190.85891 q 0,0.14602 -0.0531,0.27433 -0.0531,0.12832 -0.150439,0.22566 -0.09292,0.0929 -0.221234,0.15044 -0.128316,0.0531 -0.278756,0.0531 -0.150439,0 -0.28318,-0.0531 -0.128316,-0.0575 -0.225659,-0.15044 -0.09292,-0.0973 -0.146014,-0.22566 -0.0531,-0.12831 -0.0531,-0.27433 0,-0.14601 0.0531,-0.27433 0.0531,-0.12831 0.146014,-0.22566 0.09734,-0.0973 0.225659,-0.15044 0.132741,-0.0575 0.28318,-0.0575 0.15044,0 0.278756,0.0575 0.128316,0.0531 0.221234,0.15044 0.09734,0.0973 0.150439,0.22566 0.0531,0.12832 0.0531,0.27433 z m -1.194666,2.07076 h -1.269885 v -0.8407 h 2.376057 v 3.6548 h 1.296433 v 0.84069 h -3.827354 v -0.84069 h 1.424749 z"
         id="path958" />
      <path
         d="m 96.344518,195.26148 q 0,0.38494 -0.172562,0.65927 -0.168138,0.26991 -0.451318,0.44247 -0.278756,0.16814 -0.637155,0.24336 -0.353975,0.0796 -0.725649,0.0796 -0.495565,0 -0.893787,-0.0487 -0.398222,-0.0442 -0.752197,-0.13274 v -0.97343 q 0.415921,0.17256 0.827417,0.25221 0.41592,0.0752 0.783169,0.0752 0.42477,0 0.632731,-0.13274 0.212385,-0.13717 0.212385,-0.35398 0,-0.10176 -0.04425,-0.18583 -0.04425,-0.0841 -0.168138,-0.15929 -0.119467,-0.0797 -0.340701,-0.15929 -0.221235,-0.0841 -0.579634,-0.18584 -0.331852,-0.0929 -0.584059,-0.20796 -0.247783,-0.11947 -0.411496,-0.27875 -0.163714,-0.15929 -0.247783,-0.36725 -0.07964,-0.21239 -0.07964,-0.49557 0,-0.27433 0.123891,-0.51769 0.123892,-0.24335 0.367249,-0.42477 0.247783,-0.18583 0.615032,-0.29203 0.367249,-0.10619 0.858389,-0.10619 0.42477,0 0.752197,0.0443 0.327427,0.0443 0.579634,0.0973 v 0.88051 q -0.384948,-0.12389 -0.725649,-0.17256 -0.336276,-0.0531 -0.668127,-0.0531 -0.331852,0 -0.535388,0.11946 -0.19911,0.11947 -0.19911,0.33185 0,0.10177 0.03982,0.18142 0.03982,0.0796 0.154864,0.15486 0.119466,0.0752 0.327427,0.15929 0.212385,0.0796 0.55751,0.17699 0.389373,0.11061 0.654854,0.23893 0.265481,0.12389 0.42477,0.28318 0.163713,0.15929 0.234508,0.36282 0.07079,0.20354 0.07079,0.4646 z"
         id="path960" />
      <path
         d="m 101.66299,194.25707 q 0,0.61946 -0.17699,1.07078 -0.17256,0.45131 -0.48671,0.75219 -0.30973,0.29646 -0.7345,0.44247 -0.42477,0.14159 -0.924759,0.14159 -0.168139,0 -0.336277,-0.0221 -0.168138,-0.0221 -0.305303,-0.0575 v 1.7566 h -1.079624 v -6.25209 h 0.933609 l 0.02655,0.66371 q 0.137166,-0.17256 0.28318,-0.31415 0.15044,-0.14159 0.323003,-0.23894 0.172562,-0.10177 0.371673,-0.15486 0.199111,-0.0531 0.446888,-0.0531 0.39823,0 0.70795,0.15929 0.30973,0.15929 0.51769,0.45574 0.21239,0.29203 0.323,0.71238 0.11062,0.41592 0.11062,0.93803 z m -1.13272,0.0443 q 0,-0.37168 -0.0531,-0.63273 -0.0531,-0.26106 -0.15487,-0.4292 -0.0973,-0.16813 -0.24336,-0.24335 -0.141587,-0.0796 -0.327423,-0.0796 -0.274331,0 -0.526538,0.22124 -0.247783,0.22123 -0.526538,0.60175 v 1.96456 q 0.128316,0.0487 0.314153,0.0797 0.190261,0.031 0.384948,0.031 0.256631,0 0.464592,-0.10619 0.212386,-0.10619 0.358396,-0.30088 0.15044,-0.19469 0.23009,-0.47344 0.0796,-0.28318 0.0796,-0.63273 z"
         id="path962" />
      <path
         d="m 106.51688,193.99159 q 0,0.11062 -0.009,0.28761 -0.004,0.17698 -0.0177,0.33185 h -2.95569 q 0,0.29645 0.0885,0.52211 0.0929,0.22566 0.25663,0.38052 0.16814,0.15044 0.39822,0.23009 0.23451,0.0796 0.51769,0.0796 0.32743,0 0.6991,-0.0487 0.3761,-0.0531 0.77875,-0.16814 v 0.85839 q -0.17256,0.0487 -0.3761,0.0885 -0.20354,0.0398 -0.41592,0.0708 -0.21239,0.031 -0.4292,0.0443 -0.21681,0.0177 -0.42034,0.0177 -0.51326,0 -0.92034,-0.14602 -0.40707,-0.14601 -0.69025,-0.42919 -0.28318,-0.28761 -0.43362,-0.70795 -0.15044,-0.42035 -0.15044,-0.97344 0,-0.54866 0.15044,-0.99555 0.15044,-0.45132 0.42477,-0.7699 0.27433,-0.323 0.66371,-0.49556 0.39379,-0.17699 0.87608,-0.17699 0.47787,0 0.84512,0.15044 0.36725,0.14602 0.61503,0.4115 0.24778,0.26548 0.3761,0.63273 0.12832,0.36725 0.12832,0.80529 z m -1.09733,-0.15486 q 0.004,-0.26548 -0.0664,-0.46017 -0.0708,-0.19911 -0.19468,-0.32743 -0.11947,-0.12831 -0.28318,-0.19026 -0.15929,-0.0619 -0.34513,-0.0619 -0.40707,0 -0.66813,0.27434 -0.26105,0.2699 -0.30972,0.76547 z"
         id="path964" />
      <path
         d="m 109.03453,191.17306 h -1.26989 v -0.84069 h 2.37606 v 5.4114 h 1.29643 v 0.84069 h -3.82735 v -0.84069 h 1.42475 z"
         id="path966" />
      <path
         d="m 114.01672,191.17306 h -1.26989 v -0.84069 h 2.37606 v 5.4114 h 1.29643 v 0.84069 h -3.82735 v -0.84069 h 1.42475 z"
         id="path968" />
      <path
         d="m 120.19359,190.85891 q 0,0.14602 -0.0531,0.27433 -0.0531,0.12832 -0.15044,0.22566 -0.0929,0.0929 -0.22123,0.15044 -0.12832,0.0531 -0.27876,0.0531 -0.15044,0 -0.28318,-0.0531 -0.12832,-0.0575 -0.22566,-0.15044 -0.0929,-0.0973 -0.14601,-0.22566 -0.0531,-0.12831 -0.0531,-0.27433 0,-0.14601 0.0531,-0.27433 0.0531,-0.12831 0.14601,-0.22566 0.0973,-0.0973 0.22566,-0.15044 0.13274,-0.0575 0.28318,-0.0575 0.15044,0 0.27876,0.0575 0.12831,0.0531 0.22123,0.15044 0.0973,0.0973 0.15044,0.22566 0.0531,0.12832 0.0531,0.27433 z m -1.19467,2.07076 h -1.26989 v -0.8407 h 2.37606 v 3.6548 h 1.29643 v 0.84069 h -3.82735 v -0.84069 h 1.42475 z"
         id="path970" />
      <path
         d="m 125.21118,196.58446 v -2.92915 q 0,-0.73892 -0.54866,-0.73892 -0.27433,0 -0.52654,0.22124 -0.24778,0.22123 -0.52653,0.60175 v 2.84508 h -1.07963 v -4.49549 h 0.93361 l 0.0266,0.66371 q 0.13717,-0.17256 0.28318,-0.31415 0.15044,-0.14159 0.323,-0.23894 0.17256,-0.10177 0.37168,-0.15486 0.19911,-0.0531 0.44689,-0.0531 0.34512,0 0.60176,0.11504 0.25663,0.11062 0.42919,0.31858 0.17256,0.20354 0.25663,0.49557 0.0885,0.2876 0.0885,0.646 v 3.01764 z"
         id="path972" />
      <path
         d="m 130.88363,192.87657 q 0.12389,0.15486 0.17256,0.32743 0.0531,0.16813 0.0531,0.34512 0,0.3761 -0.13274,0.6637 -0.12832,0.28761 -0.36725,0.4823 -0.23451,0.19468 -0.56636,0.29645 -0.32743,0.0973 -0.72565,0.0973 -0.23451,0 -0.43362,-0.0442 -0.19911,-0.0487 -0.30088,-0.11062 -0.0752,0.0752 -0.12832,0.16814 -0.0531,0.0885 -0.0531,0.20353 0,0.0708 0.0354,0.14159 0.0354,0.0708 0.10176,0.12832 0.0708,0.0531 0.16372,0.0885 0.0973,0.0354 0.21681,0.0398 l 1.06635,0.0398 q 0.3584,0.009 0.646,0.0929 0.29203,0.0796 0.49999,0.23008 0.20796,0.15044 0.31858,0.36725 0.11504,0.21238 0.11504,0.48671 0,0.31416 -0.14159,0.59291 -0.14159,0.27876 -0.4292,0.48229 -0.28318,0.20796 -0.70795,0.32743 -0.42477,0.11947 -0.9867,0.11947 -0.54424,0 -0.93803,-0.0885 -0.38938,-0.0841 -0.64158,-0.23893 -0.24779,-0.15486 -0.36725,-0.37167 -0.11947,-0.21239 -0.11947,-0.46902 0,-0.15487 0.0398,-0.28761 0.0398,-0.13274 0.11947,-0.25663 0.0796,-0.11946 0.19911,-0.23451 0.11947,-0.11504 0.28318,-0.23008 -0.21681,-0.12389 -0.33185,-0.31858 -0.11062,-0.19468 -0.11062,-0.41592 0,-0.15044 0.0398,-0.27875 0.0398,-0.13274 0.10177,-0.25221 0.0664,-0.11947 0.15044,-0.23008 0.0841,-0.11062 0.17699,-0.21681 -0.16372,-0.16372 -0.27433,-0.3938 -0.10619,-0.23451 -0.10619,-0.58406 0,-0.3761 0.13274,-0.66813 0.13716,-0.29645 0.37609,-0.49556 0.23894,-0.20354 0.56636,-0.30531 0.33186,-0.10619 0.72123,-0.10619 0.19911,0 0.38052,0.0221 0.18584,0.0177 0.33628,0.0664 h 1.55749 v 0.7876 z m -2.5442,4.30522 q 0,0.26106 0.26106,0.38495 0.26548,0.12389 0.74335,0.12389 0.3053,0 0.51326,-0.0575 0.21239,-0.0575 0.34513,-0.15044 0.13274,-0.0929 0.19026,-0.21681 0.0575,-0.12389 0.0575,-0.25663 0,-0.11947 -0.0575,-0.20354 -0.0531,-0.0796 -0.15487,-0.13716 -0.0973,-0.0531 -0.23451,-0.0841 -0.13274,-0.0266 -0.29645,-0.0354 l -0.95131,-0.0177 q -0.12831,0.0885 -0.21238,0.16814 -0.0796,0.0796 -0.12832,0.15486 -0.0442,0.0796 -0.0619,0.15929 -0.0133,0.0796 -0.0133,0.16814 z m 0.18141,-3.60612 q 0,0.3584 0.20796,0.57078 0.21239,0.20796 0.58849,0.20796 0.19911,0 0.34512,-0.0664 0.15044,-0.0664 0.24779,-0.17698 0.0973,-0.11062 0.14601,-0.25663 0.0487,-0.14602 0.0487,-0.30531 0,-0.3761 -0.21238,-0.58406 -0.20796,-0.21238 -0.58406,-0.21238 -0.19911,0 -0.34955,0.0664 -0.14602,0.0664 -0.24336,0.18141 -0.0973,0.11062 -0.14601,0.26106 -0.0487,0.15044 -0.0487,0.31415 z"
         id="path974" />
      <path
         d="m 141.52501,194.30132 q 0,0.53096 -0.15044,0.97343 -0.15044,0.43804 -0.43362,0.7522 -0.28318,0.31415 -0.69468,0.48671 -0.41149,0.17257 -0.93803,0.17257 -0.49999,0 -0.89379,-0.14602 -0.3938,-0.14601 -0.66813,-0.43362 -0.27433,-0.29203 -0.42034,-0.72565 -0.14602,-0.43804 -0.14602,-1.01768 0,-0.53538 0.15044,-0.97343 0.15487,-0.43804 0.43805,-0.74777 0.2876,-0.30973 0.6991,-0.47787 0.41149,-0.17256 0.92918,-0.17256 0.50442,0 0.89821,0.15044 0.3938,0.14602 0.66813,0.43805 0.27433,0.29202 0.41592,0.72564 0.14602,0.4292 0.14602,0.99556 z m -1.12387,0.0265 q 0,-0.6991 -0.26549,-1.04865 -0.26105,-0.35398 -0.77432,-0.35398 -0.28318,0 -0.48229,0.11062 -0.19911,0.11062 -0.32742,0.3053 -0.12832,0.19026 -0.19027,0.44689 -0.0575,0.25664 -0.0575,0.54867 0,0.70352 0.28318,1.06192 0.28318,0.35398 0.77432,0.35398 0.26991,0 0.46902,-0.1062 0.19911,-0.11061 0.323,-0.30088 0.12389,-0.19468 0.18584,-0.45574 0.0619,-0.26105 0.0619,-0.56193 z"
         id="path976" />
      <path
         d="m 146.49392,191.24828 q -0.19468,-0.0619 -0.46459,-0.10176 -0.26548,-0.0443 -0.54423,-0.0443 -0.19027,0 -0.35398,0.0531 -0.16371,0.0487 -0.28318,0.15928 -0.11947,0.11062 -0.19026,0.28318 -0.0664,0.16814 -0.0664,0.4115 v 0.72565 h 1.76545 v 0.84069 h -1.76545 v 3.00879 h -1.08847 v -3.00879 h -1.30529 v -0.84069 h 1.30529 v -0.6814 q 0,-0.47787 0.13716,-0.81857 0.14159,-0.34513 0.3938,-0.56194 0.25663,-0.22123 0.61503,-0.323 0.3584,-0.10177 0.80087,-0.10177 0.29203,0 0.55308,0.0398 0.26549,0.0354 0.49114,0.0885 z m -4.65034,0.84069 z"
         id="path978" />
      <path
         d="m 156.32116,194.83671 q 0,0.47344 -0.17699,0.82299 -0.17256,0.34955 -0.48671,0.57963 -0.31416,0.22566 -0.74777,0.33628 -0.43362,0.11062 -0.94689,0.11062 -0.45574,0 -0.88051,-0.0531 -0.42477,-0.0531 -0.84069,-0.17699 v -1.0752 q 0.20353,0.0708 0.42477,0.13274 0.22123,0.0619 0.44247,0.11062 0.22566,0.0443 0.44689,0.0708 0.22124,0.0265 0.4292,0.0265 0.30972,0 0.52653,-0.0531 0.21681,-0.0531 0.35398,-0.14602 0.13716,-0.0929 0.19911,-0.22123 0.0619,-0.12832 0.0619,-0.28318 0,-0.21239 -0.1239,-0.35398 -0.11946,-0.14601 -0.31857,-0.25663 -0.19911,-0.11062 -0.45575,-0.19911 -0.2522,-0.0885 -0.51768,-0.19026 -0.26106,-0.10177 -0.51769,-0.23009 -0.25221,-0.12831 -0.45132,-0.31857 -0.19911,-0.19026 -0.323,-0.45132 -0.11947,-0.26548 -0.11947,-0.63716 0,-0.3407 0.12389,-0.646 0.12389,-0.3053 0.38937,-0.53096 0.26548,-0.23009 0.68141,-0.36283 0.41592,-0.13716 1.0044,-0.13716 0.17256,0 0.3584,0.0177 0.19026,0.0133 0.37167,0.0398 0.18584,0.0221 0.35398,0.0575 0.17256,0.031 0.31415,0.0664 v 0.99555 q -0.14159,-0.0531 -0.30973,-0.0973 -0.16814,-0.0443 -0.34955,-0.0752 -0.17699,-0.0354 -0.3584,-0.0531 -0.18141,-0.0177 -0.34512,-0.0177 -0.28761,0 -0.48672,0.0487 -0.19911,0.0443 -0.32743,0.12831 -0.12831,0.0797 -0.18583,0.19912 -0.0575,0.11946 -0.0575,0.26548 0,0.18141 0.11946,0.31415 0.12389,0.12832 0.32301,0.23451 0.20353,0.10177 0.45574,0.19468 0.25663,0.0885 0.52211,0.19469 0.26991,0.10177 0.52211,0.23451 0.25664,0.13274 0.45575,0.323 0.20353,0.19026 0.323,0.45132 0.12389,0.25663 0.12389,0.61061 z"
         id="path980" />
      <path
         d="m 157.66184,196.58446 v -5.78307 h 1.10617 v 4.84946 h 2.44243 v 0.93361 z"
         id="path982" />
      <path
         d="m 166.59086,193.66859 q 0,0.78759 -0.18584,1.35838 -0.18141,0.57078 -0.50441,0.93803 -0.31858,0.36725 -0.7522,0.54424 -0.42919,0.17699 -0.92034,0.17699 -1.14156,0 -1.71677,-0.75663 -0.57521,-0.76104 -0.57521,-2.20792 0,-0.78759 0.18141,-1.35837 0.18584,-0.57079 0.50441,-0.93804 0.32301,-0.36725 0.7522,-0.54423 0.43362,-0.17699 0.92476,-0.17699 1.14157,0 1.71678,0.75662 0.57521,0.75662 0.57521,2.20792 z m -1.15042,0.0531 q 0,-1.02652 -0.27433,-1.53094 -0.27433,-0.50441 -0.90264,-0.50441 -0.31415,0 -0.53538,0.13274 -0.22124,0.12831 -0.36725,0.38052 -0.14159,0.25221 -0.20796,0.62388 -0.0664,0.36725 -0.0664,0.84512 0,1.02653 0.27433,1.53094 0.27875,0.50441 0.90263,0.50441 0.31416,0 0.53539,-0.12831 0.22566,-0.13274 0.36725,-0.38495 0.14159,-0.25221 0.20796,-0.61946 0.0664,-0.37167 0.0664,-0.84954 z"
         id="path984" />
      <path
         d="m 171.26776,196.58446 h -1.27874 l -0.57078,-1.78315 -0.20796,-0.72565 -0.19912,0.74335 -0.56193,1.76545 h -1.22564 l -0.323,-5.78307 h 0.96016 l 0.13716,3.70789 0.0354,1.01325 0.26106,-0.90263 0.63715,-2.05748 h 0.68583 l 0.67255,2.18137 0.21681,0.76989 0.0177,-0.90263 0.14601,-3.80966 h 0.92476 z"
         id="path986" />
      <path
         d="m 174.69246,194.78803 h -0.92476 l -0.16372,-4.45566 h 1.25219 z m -0.46459,0.51769 q 0.14159,0 0.26548,0.0531 0.12831,0.0531 0.22123,0.14601 0.0929,0.0929 0.14602,0.22124 0.0575,0.12389 0.0575,0.2699 0,0.14602 -0.0575,0.27433 -0.0531,0.1239 -0.14602,0.21681 -0.0929,0.0929 -0.22123,0.14602 -0.12389,0.0531 -0.26548,0.0531 -0.14159,0 -0.26991,-0.0531 -0.12389,-0.0531 -0.21681,-0.14602 -0.0929,-0.0929 -0.14601,-0.21681 -0.0531,-0.12831 -0.0531,-0.27433 0,-0.14601 0.0531,-0.2699 0.0531,-0.12832 0.14601,-0.22124 0.0929,-0.0929 0.21681,-0.14601 0.12832,-0.0531 0.26991,-0.0531 z"
         id="path988" />
    </g>
  </g>
</svg>
