<?xml version="1.0" encoding="UTF-8" standalone="no"?>
<!-- Created with Inkscape (http://www.inkscape.org/) -->

<svg
   width="159mm"
   height="75mm"
   viewBox="0 0 159 75"
   version="1.1"
   id="svg5"
   inkscape:version="1.2.2 (732a01da63, 2022-12-09)"
   sodipodi:docname=".swol Logo.svg"
   xmlns:inkscape="http://www.inkscape.org/namespaces/inkscape"
   xmlns:sodipodi="http://sodipodi.sourceforge.net/DTD/sodipodi-0.dtd"
   xmlns="http://www.w3.org/2000/svg"
   xmlns:svg="http://www.w3.org/2000/svg">
  <sodipodi:namedview
     id="namedview7"
     pagecolor="#505050"
     bordercolor="#eeeeee"
     borderopacity="1"
     inkscape:showpageshadow="0"
     inkscape:pageopacity="0"
     inkscape:pagecheckerboard="0"
     inkscape:deskcolor="#505050"
     inkscape:document-units="mm"
     showgrid="false"
     inkscape:zoom="0.67178375"
     inkscape:cx="251.56905"
     inkscape:cy="271.6648"
     inkscape:window-width="1920"
     inkscape:window-height="1001"
     inkscape:window-x="-9"
     inkscape:window-y="-9"
     inkscape:window-maximized="1"
     inkscape:current-layer="layer1" />
  <defs
     id="defs2" />
  <g
     inkscape:label="Calque 1"
     inkscape:groupmode="layer"
     id="layer1">
    <rect
       style="fill:#ffffff;stroke-width:2.02367"
       id="rect941"
       width="155.192"
       height="71.494873"
       x="1.8260409"
       y="1.9406128" />
    <g
       aria-label="script with one line"
       id="text603"
       style="font-weight:bold;font-size:11.7317px;font-family:Consolas;-inkscape-font-specification:'Consolas Bold';stroke-width:0.828825"
       transform="translate(-9.4038895,-133.62371)">
      <path
         id="path655"
         d="m 50.150944,188.98175 c -0.129843,0 -0.251819,0.0247 -0.366386,0.0744 -0.110748,0.0458 -0.207956,0.11081 -0.291972,0.19482 -0.0802,0.084 -0.143309,0.18122 -0.189135,0.29197 -0.04583,0.11075 -0.06873,0.22899 -0.06873,0.35502 0,0.12602 0.0229,0.24479 0.06873,0.35553 0.04583,0.11076 0.108939,0.20796 0.189135,0.29198 0.08402,0.0802 0.181224,0.14515 0.291972,0.19482 0.114567,0.0458 0.236543,0.0687 0.366386,0.0687 0.129843,0 0.25047,-0.0229 0.361218,-0.0687 0.110749,-0.0496 0.206091,-0.11462 0.286288,-0.19482 0.08402,-0.084 0.148993,-0.18122 0.19482,-0.29198 0.04583,-0.11074 0.06873,-0.22951 0.06873,-0.35553 0,-0.12603 -0.0229,-0.24427 -0.06873,-0.35502 -0.04583,-0.11075 -0.110804,-0.20796 -0.19482,-0.29197 -0.0802,-0.084 -0.175539,-0.14902 -0.286288,-0.19482 -0.110748,-0.0497 -0.231375,-0.0744 -0.361218,-0.0744 z m 32.250745,0 c -0.129844,0 -0.251819,0.0247 -0.366386,0.0744 -0.110748,0.0458 -0.208472,0.11081 -0.292489,0.19482 -0.0802,0.084 -0.142792,0.18122 -0.188619,0.29197 -0.04583,0.11075 -0.06873,0.22899 -0.06873,0.35502 0,0.12602 0.0229,0.24479 0.06873,0.35553 0.04583,0.11076 0.108423,0.20796 0.188619,0.29198 0.08402,0.0802 0.181741,0.14515 0.292489,0.19482 0.114567,0.0458 0.236542,0.0687 0.366386,0.0687 0.129842,0 0.250469,-0.0229 0.361218,-0.0687 0.110748,-0.0496 0.20609,-0.11462 0.286287,-0.19482 0.08402,-0.084 0.148994,-0.18122 0.19482,-0.29198 0.04583,-0.11074 0.06873,-0.22951 0.06873,-0.35553 0,-0.12603 -0.0229,-0.24427 -0.06873,-0.35502 -0.04583,-0.11075 -0.110804,-0.20796 -0.19482,-0.29197 -0.0802,-0.084 -0.175539,-0.14902 -0.286287,-0.19482 -0.110749,-0.0497 -0.231376,-0.0744 -0.361218,-0.0744 z m 58.051241,0 c -0.12985,0 -0.25182,0.0247 -0.36639,0.0744 -0.11075,0.0458 -0.20795,0.11081 -0.29197,0.19482 -0.0802,0.084 -0.14334,0.18122 -0.18914,0.29197 -0.0458,0.11075 -0.0687,0.22899 -0.0687,0.35502 0,0.12602 0.0229,0.24479 0.0687,0.35553 0.0458,0.11076 0.10894,0.20796 0.18914,0.29198 0.084,0.0802 0.18122,0.14515 0.29197,0.19482 0.11457,0.0458 0.23654,0.0687 0.36639,0.0687 0.12984,0 0.25047,-0.0229 0.36121,-0.0687 0.11076,-0.0496 0.2061,-0.11462 0.28629,-0.19482 0.0841,-0.084 0.14902,-0.18122 0.19482,-0.29198 0.0458,-0.11074 0.0687,-0.22951 0.0687,-0.35553 0,-0.12603 -0.0229,-0.24427 -0.0687,-0.35502 -0.0458,-0.11075 -0.1108,-0.20796 -0.19482,-0.29197 -0.0802,-0.084 -0.17553,-0.14902 -0.28629,-0.19482 -0.11074,-0.0497 -0.23137,-0.0744 -0.36121,-0.0744 z m -47.665829,0.23461 v 8.09459 h 1.397848 v -3.68349 c 0.240591,-0.32843 0.467753,-0.58834 0.681612,-0.77928 0.217678,-0.19095 0.44484,-0.28629 0.681612,-0.28629 0.473544,0 0.710551,0.31878 0.710551,0.95653 v 3.79253 h 1.397847 v -3.90673 c 0,-0.30934 -0.03834,-0.58842 -0.114721,-0.83665 -0.07256,-0.25205 -0.183343,-0.46563 -0.33228,-0.6413 -0.148938,-0.17949 -0.334025,-0.31743 -0.555521,-0.4129 -0.221497,-0.0993 -0.481407,-0.14882 -0.779281,-0.14882 -0.198584,0 -0.37994,0.021 -0.544153,0.063 -0.164213,0.0382 -0.31707,0.0957 -0.45837,0.17208 -0.1413,0.0764 -0.272603,0.17173 -0.394808,0.28629 -0.122205,0.11075 -0.242831,0.23697 -0.361218,0.37827 l 0.06873,-1.0542 v -1.99367 z m 38.936129,0 v 1.0883 h 1.64382 v 5.91747 h -1.84433 v 1.08882 h 4.95474 v -1.08882 h -1.67845 v -7.00577 z m -68.649044,0.41289 -1.431954,0.37207 v 1.48932 h -1.563729 v 1.0883 h 1.563729 v 2.84169 c 0,0.35134 0.04207,0.65467 0.126091,0.91054 0.08783,0.25205 0.22152,0.46004 0.401009,0.62425 0.183307,0.16421 0.412335,0.28671 0.687296,0.3669 0.278781,0.0802 0.609263,0.12041 0.991154,0.12041 0.229135,0 0.471221,-0.0173 0.727088,-0.0517 0.255866,-0.0344 0.510179,-0.0802 0.762227,-0.13746 v -1.11724 c -0.179489,0.0496 -0.378151,0.0936 -0.595829,0.13177 -0.217678,0.0382 -0.441109,0.0574 -0.670243,0.0574 -0.358977,0 -0.614639,-0.0841 -0.767395,-0.25218 -0.152757,-0.17185 -0.229444,-0.42378 -0.229444,-0.75602 v -2.73834 h 2.262911 v -1.0883 h -2.262911 z m 25.800493,0 -1.431954,0.37207 v 1.48932 h -1.563729 v 1.0883 h 1.563729 v 2.84169 c 0,0.35134 0.04207,0.65467 0.12609,0.91054 0.08783,0.25205 0.221521,0.46004 0.401009,0.62425 0.183308,0.16421 0.412336,0.28671 0.687297,0.3669 0.27878,0.0802 0.609263,0.12041 0.991154,0.12041 0.229134,0 0.471737,-0.0173 0.727604,-0.0517 0.255867,-0.0344 0.509663,-0.0802 0.761711,-0.13746 v -1.11724 c -0.179489,0.0496 -0.378152,0.0936 -0.59583,0.13177 -0.217678,0.0382 -0.441108,0.0574 -0.670243,0.0574 -0.358977,0 -0.614639,-0.0841 -0.767395,-0.25218 -0.152757,-0.17185 -0.229443,-0.42378 -0.229443,-0.75602 v -2.73834 h 2.262911 v -1.0883 h -2.262911 z m -57.947885,1.7353 c -0.423898,0 -0.794591,0.0458 -1.11156,0.13746 -0.316969,0.0916 -0.582475,0.21787 -0.796333,0.37827 -0.210041,0.15657 -0.368494,0.33979 -0.475424,0.54983 -0.106929,0.21004 -0.160197,0.43347 -0.160197,0.67025 0,0.24441 0.03461,0.45851 0.103353,0.64182 0.07256,0.17949 0.179094,0.33794 0.320394,0.47542 0.1413,0.13748 0.318926,0.2576 0.532784,0.3607 0.217678,0.0993 0.469608,0.18904 0.756026,0.26924 0.309332,0.0878 0.559914,0.16825 0.750859,0.24081 0.190946,0.0687 0.337689,0.13745 0.4408,0.20619 0.106932,0.0649 0.179371,0.13363 0.217558,0.20619 0.03819,0.0726 0.05736,0.15246 0.05736,0.24029 0,0.18713 -0.09161,0.33999 -0.274919,0.45837 -0.179489,0.11457 -0.452457,0.17209 -0.819072,0.17209 -0.316969,0 -0.654914,-0.0327 -1.013891,-0.0977 -0.355159,-0.0687 -0.712276,-0.17766 -1.071253,-0.3266 v 1.26039 c 0.305513,0.0764 0.629883,0.13388 0.973584,0.17208 0.343703,0.042 0.729835,0.0625 1.157553,0.0625 0.320788,0 0.633965,-0.0341 0.939477,-0.10283 0.309332,-0.0649 0.584164,-0.17012 0.824756,-0.31523 0.24441,-0.14894 0.439342,-0.33962 0.58446,-0.57258 0.148938,-0.23677 0.223243,-0.52144 0.223243,-0.85369 0,-0.22531 -0.03037,-0.42584 -0.09147,-0.60151 -0.0611,-0.17567 -0.162557,-0.33226 -0.303857,-0.46974 -0.137481,-0.13748 -0.320703,-0.25946 -0.549837,-0.36639 -0.229135,-0.11074 -0.511946,-0.21407 -0.848011,-0.30954 -0.297875,-0.084 -0.538096,-0.16019 -0.721403,-0.22893 -0.179489,-0.0726 -0.321153,-0.14125 -0.424263,-0.20619 -0.09929,-0.0649 -0.166131,-0.13176 -0.200505,-0.2005 -0.03437,-0.0687 -0.05168,-0.14729 -0.05168,-0.23513 0,-0.1833 0.08601,-0.32632 0.257865,-0.42943 0.17567,-0.10311 0.40708,-0.15451 0.693498,-0.15451 0.286418,0 0.57431,0.0229 0.864547,0.0687 0.294055,0.042 0.607232,0.11631 0.939477,0.22324 V 191.548 c -0.217678,-0.0458 -0.467742,-0.0879 -0.750342,-0.12609 -0.282599,-0.0382 -0.606968,-0.0574 -0.973584,-0.0574 z m 13.616224,0 c -0.213859,0 -0.410656,0.0229 -0.590145,0.0687 -0.179489,0.0458 -0.343539,0.11267 -0.492477,0.2005 -0.145118,0.084 -0.278804,0.18548 -0.401009,0.30386 -0.118386,0.11838 -0.225438,0.25207 -0.32091,0.40101 l -0.05168,-0.84801 h -1.265556 v 5.82031 h 1.431954 v -3.68349 c 0.263505,-0.38953 0.504242,-0.66809 0.72192,-0.83613 0.221496,-0.17185 0.435083,-0.25786 0.641305,-0.25786 0.118386,0 0.223573,0.0229 0.315226,0.0687 0.09166,0.0458 0.167826,0.11827 0.228926,0.21756 0.06492,0.0993 0.110726,0.22499 0.13746,0.37775 0.03055,0.15275 0.04226,0.33836 0.03462,0.55604 h 1.403532 c 0.01146,-0.39335 -0.02129,-0.73927 -0.09767,-1.03715 -0.07256,-0.30169 -0.187073,-0.55176 -0.343648,-0.75034 -0.152756,-0.19859 -0.34344,-0.34719 -0.572575,-0.44648 -0.225315,-0.10311 -0.485224,-0.15503 -0.77928,-0.15503 z m 12.63127,0 c -0.213859,0 -0.406925,0.0229 -0.578776,0.0687 -0.171851,0.0458 -0.33217,0.11267 -0.481108,0.2005 -0.148937,0.084 -0.288219,0.18734 -0.418062,0.30954 -0.126024,0.12221 -0.248517,0.25776 -0.366903,0.4067 l -0.03411,-0.85938 h -1.208712 v 8.09408 h 1.397331 v -2.27377 c 0.118386,0.0306 0.250206,0.0554 0.395325,0.0744 0.145118,0.0191 0.290513,0.0284 0.435632,0.0284 0.431537,0 0.830728,-0.0612 1.197343,-0.18345 0.366615,-0.12603 0.683522,-0.31671 0.950846,-0.57258 0.271143,-0.25968 0.480999,-0.58457 0.629936,-0.9741 0.152756,-0.38953 0.228926,-0.85131 0.228926,-1.38596 0,-0.45063 -0.04767,-0.85542 -0.143143,-1.2144 -0.09547,-0.36279 -0.234755,-0.67037 -0.418063,-0.92242 -0.179489,-0.25587 -0.40292,-0.45266 -0.670243,-0.59014 -0.267324,-0.13748 -0.572521,-0.20619 -0.916223,-0.20619 z m 50.999472,0 c -0.44681,0 -0.84787,0.0748 -1.20303,0.22376 -0.35516,0.14512 -0.65663,0.35124 -0.90485,0.61856 -0.24442,0.26732 -0.43375,0.58983 -0.56741,0.9679 -0.12985,0.37808 -0.19482,0.7983 -0.19482,1.26039 0,0.50028 0.0631,0.93916 0.18914,1.31723 0.12602,0.37426 0.30738,0.68743 0.54415,0.93948 0.23676,0.24823 0.52518,0.4357 0.86506,0.56172 0.33988,0.12603 0.7255,0.18862 1.15704,0.18862 0.45445,0 0.85924,-0.0743 1.21439,-0.22324 0.35516,-0.14894 0.65528,-0.3588 0.89969,-0.62994 0.24441,-0.27114 0.43136,-0.59602 0.56121,-0.9741 0.12984,-0.38189 0.19482,-0.8016 0.19482,-1.25987 0,-0.48882 -0.0631,-0.91889 -0.18914,-1.28933 -0.12221,-0.37425 -0.30169,-0.68691 -0.53847,-0.93896 -0.23677,-0.25204 -0.52518,-0.44138 -0.86506,-0.5674 -0.33989,-0.12984 -0.72737,-0.19482 -1.16272,-0.19482 z m 7.05176,0 c -0.21385,0 -0.40692,0.0229 -0.57877,0.0687 -0.17185,0.0458 -0.33217,0.11267 -0.48111,0.2005 -0.14894,0.084 -0.28822,0.18734 -0.41806,0.30954 -0.12603,0.12221 -0.24852,0.25776 -0.3669,0.4067 l -0.0341,-0.85938 h -1.20871 v 5.82031 h 1.39785 v -3.68349 c 0.24059,-0.32843 0.46775,-0.58834 0.68161,-0.77928 0.21768,-0.19095 0.44484,-0.28629 0.68161,-0.28629 0.47355,0 0.71003,0.31878 0.71003,0.95653 v 3.79253 h 1.39785 v -3.90673 c 0,-0.30934 -0.0378,-0.58842 -0.1142,-0.83665 -0.0726,-0.25205 -0.18335,-0.46563 -0.33228,-0.6413 -0.14894,-0.17949 -0.33455,-0.31691 -0.55604,-0.41238 -0.2215,-0.0993 -0.48089,-0.14934 -0.77877,-0.14934 z m 5.88853,0 c -0.41626,0 -0.79441,0.0767 -1.13429,0.22944 -0.33607,0.14894 -0.62209,0.36252 -0.85887,0.6413 -0.23676,0.27496 -0.41999,0.60731 -0.54983,0.99684 -0.12984,0.38571 -0.19482,0.81527 -0.19482,1.28881 0,0.47737 0.065,0.8976 0.19482,1.26039 0.12984,0.3628 0.3168,0.668 0.5612,0.91622 0.24442,0.24441 0.54215,0.43002 0.89349,0.55604 0.35134,0.12603 0.74866,0.18862 1.19166,0.18862 0.17566,0 0.35702,-0.007 0.54415,-0.0227 0.18713,-0.0115 0.37222,-0.0306 0.55552,-0.0574 0.18331,-0.0267 0.3628,-0.0571 0.53847,-0.0915 0.17567,-0.0344 0.33786,-0.0727 0.48679,-0.11473 v -1.11104 c -0.34752,0.0993 -0.6836,0.17176 -1.00821,0.21756 -0.32078,0.042 -0.62225,0.063 -0.90485,0.063 -0.24441,0 -0.46784,-0.0346 -0.67024,-0.10335 -0.19859,-0.0687 -0.37062,-0.16782 -0.51573,-0.29765 -0.1413,-0.13366 -0.25208,-0.29771 -0.33228,-0.49248 -0.0764,-0.19477 -0.11421,-0.42006 -0.11421,-0.67593 h 3.82664 c 0.0113,-0.13366 0.0187,-0.27719 0.0227,-0.42995 0.008,-0.15275 0.0114,-0.27659 0.0114,-0.37207 0,-0.37807 -0.0551,-0.72586 -0.16588,-1.04283 -0.11075,-0.31697 -0.27345,-0.58994 -0.48731,-0.81907 -0.21386,-0.22913 -0.47885,-0.40676 -0.79582,-0.53278 -0.31697,-0.12984 -0.68207,-0.19482 -1.09451,-0.19482 z m 26.36222,0 c -0.21386,0 -0.40692,0.0229 -0.57878,0.0687 -0.17185,0.0458 -0.33217,0.11267 -0.4811,0.2005 -0.14894,0.084 -0.28823,0.18734 -0.41807,0.30954 -0.12602,0.12221 -0.24851,0.25776 -0.3669,0.4067 l -0.0341,-0.85938 h -1.20871 v 5.82031 h 1.39785 v -3.68349 c 0.24059,-0.32843 0.46775,-0.58834 0.68161,-0.77928 0.21768,-0.19095 0.44484,-0.28629 0.68161,-0.28629 0.47355,0 0.71004,0.31878 0.71004,0.95653 v 3.79253 h 1.39785 v -3.90673 c 0,-0.30934 -0.0384,-0.58842 -0.11473,-0.83665 -0.0726,-0.25205 -0.18283,-0.46563 -0.33176,-0.6413 -0.14894,-0.17949 -0.33454,-0.31691 -0.55604,-0.41238 -0.22149,-0.0993 -0.48089,-0.14934 -0.77876,-0.14934 z m 5.88853,0 c -0.41626,0 -0.79442,0.0767 -1.1343,0.22944 -0.33607,0.14894 -0.6226,0.36252 -0.85938,0.6413 -0.23677,0.27496 -0.42,0.60731 -0.54984,0.99684 -0.12984,0.38571 -0.19482,0.81527 -0.19482,1.28881 0,0.47737 0.065,0.8976 0.19482,1.26039 0.12984,0.3628 0.31731,0.668 0.56173,0.91622 0.2444,0.24441 0.54214,0.43002 0.89348,0.55604 0.35134,0.12603 0.74866,0.18862 1.19166,0.18862 0.17567,0 0.35703,-0.007 0.54415,-0.0227 0.18713,-0.0115 0.37222,-0.0306 0.55553,-0.0574 0.1833,-0.0267 0.36279,-0.0571 0.53846,-0.0915 0.17567,-0.0344 0.33786,-0.0727 0.4868,-0.11473 v -1.11104 c -0.34752,0.0993 -0.6836,0.17176 -1.00821,0.21756 -0.32079,0.042 -0.62226,0.063 -0.90485,0.063 -0.24441,0 -0.46785,-0.0346 -0.67025,-0.10335 -0.19858,-0.0687 -0.37061,-0.16782 -0.51573,-0.29765 -0.1413,-0.13366 -0.25209,-0.29771 -0.33228,-0.49248 -0.0764,-0.19477 -0.11472,-0.42006 -0.11472,-0.67593 h 3.82664 c 0.0113,-0.13366 0.0192,-0.27719 0.0232,-0.42995 0.008,-0.15275 0.0114,-0.27659 0.0114,-0.37207 0,-0.37807 -0.0557,-0.72586 -0.1664,-1.04283 -0.11075,-0.31697 -0.27293,-0.58994 -0.48679,-0.81907 -0.21386,-0.22913 -0.47936,-0.40676 -0.79633,-0.53278 -0.31697,-0.12984 -0.68154,-0.19482 -1.09399,-0.19482 z m -115.59863,0.0346 c -0.462087,0 -0.881799,0.0724 -1.259871,0.21756 -0.374253,0.14511 -0.695408,0.35124 -0.962732,0.61856 -0.267324,0.26733 -0.475314,0.59035 -0.624251,0.96842 -0.145119,0.37807 -0.217558,0.79965 -0.217558,1.26556 0,0.48118 0.06684,0.90514 0.200504,1.27175 0.137481,0.36662 0.334278,0.6742 0.590145,0.92243 0.255867,0.24822 0.566662,0.43518 0.933277,0.5612 0.366615,0.12603 0.781246,0.18914 1.243335,0.18914 0.320788,0 0.628367,-0.0266 0.922424,-0.0801 0.294056,-0.0535 0.578216,-0.13575 0.853178,-0.2465 v -1.24281 c -0.114568,0.0496 -0.238409,0.0955 -0.372071,0.13746 -0.129843,0.042 -0.263528,0.0798 -0.401009,0.1142 -0.133662,0.0306 -0.269212,0.0559 -0.406693,0.0749 -0.133661,0.0153 -0.261751,0.0227 -0.383956,0.0227 -0.252048,0 -0.481075,-0.0402 -0.687297,-0.12041 -0.20622,-0.084 -0.383846,-0.20226 -0.532784,-0.35501 -0.145118,-0.15658 -0.257766,-0.34592 -0.337964,-0.56741 -0.0802,-0.2215 -0.120406,-0.47156 -0.120406,-0.75034 0,-0.26732 0.03648,-0.51179 0.109038,-0.73329 0.07638,-0.22531 0.185295,-0.416 0.326595,-0.57258 0.141299,-0.15658 0.314677,-0.27907 0.520898,-0.3669 0.206221,-0.0878 0.439497,-0.13177 0.699182,-0.13177 0.248229,0 0.509487,0.0327 0.784449,0.0977 0.27878,0.0649 0.536823,0.15654 0.773596,0.27492 v -1.35754 c -0.206221,-0.0611 -0.439497,-0.11062 -0.699182,-0.14882 -0.255867,-0.042 -0.572774,-0.0631 -0.950847,-0.0631 z m 10.10481,0.0915 v 1.0883 h 1.644344 v 3.64319 h -1.844849 v 1.08882 h 4.955253 v -1.08882 h -1.67845 v -4.73149 z m 24.815539,0 0.824756,5.82031 h 1.558045 l 0.595829,-1.82779 0.189136,-0.65836 0.189135,0.64131 0.618567,1.84484 h 1.55236 l 0.819072,-5.82031 h -1.266073 l -0.349332,3.2768 -0.108521,0.92191 -0.269234,-0.83044 -0.624768,-1.75855 h -1.065052 l -0.58446,1.76992 -0.235128,0.8077 -0.09715,-0.89917 -0.418063,-3.28817 z m 7.435205,0 v 1.0883 h 1.644345 v 3.64319 H 79.92122 v 1.08882 h 4.955253 v -1.08882 h -1.678451 v -4.73149 z m 58.051756,0 v 1.0883 h 1.64383 v 3.64319 h -1.84434 v 1.08882 h 4.95474 v -1.08882 h -1.67845 v -4.73149 z m -17.08785,0.91674 c 0.1604,0 0.30901,0.0266 0.44649,0.0801 0.1413,0.0535 0.26379,0.13575 0.3669,0.24649 0.1069,0.11075 0.19105,0.2519 0.25218,0.42375 0.0613,0.16803 0.0898,0.3667 0.0858,0.59583 h -2.41742 c 0.042,-0.42772 0.1757,-0.7582 0.40101,-0.99116 0.22532,-0.23677 0.51372,-0.35501 0.86506,-0.35501 z m 32.25075,0 c 0.16039,0 0.30899,0.0266 0.44648,0.0801 0.1413,0.0535 0.2638,0.13575 0.3669,0.24649 0.1069,0.11075 0.19105,0.2519 0.25218,0.42375 0.0613,0.16803 0.0898,0.3667 0.0858,0.59583 h -2.41743 c 0.042,-0.42772 0.1757,-0.7582 0.40101,-0.99116 0.22532,-0.23677 0.51373,-0.35501 0.86507,-0.35501 z m -96.488687,0.15451 c 0.160394,0 0.301541,0.0346 0.423747,0.10335 0.126023,0.0649 0.23121,0.16959 0.315226,0.31471 0.08783,0.14512 0.154678,0.33021 0.200504,0.55552 0.04583,0.22532 0.06873,0.4988 0.06873,0.81959 0,0.30169 -0.03461,0.57467 -0.103353,0.81907 -0.06874,0.2406 -0.167814,0.44485 -0.297656,0.61289 -0.126025,0.16803 -0.280747,0.29798 -0.464054,0.38964 -0.17949,0.0917 -0.380018,0.13746 -0.601514,0.13746 -0.168032,0 -0.333948,-0.0136 -0.498161,-0.0403 -0.160394,-0.0267 -0.296462,-0.0608 -0.40721,-0.10284 v -2.54351 c 0.240591,-0.32843 0.46827,-0.58834 0.682129,-0.77928 0.217678,-0.19095 0.44484,-0.28629 0.681612,-0.28629 z m 51.280077,0.0114 c 0.44299,0 0.77721,0.15286 1.00252,0.45837 0.22914,0.30169 0.34365,0.75415 0.34365,1.35754 0,0.25968 -0.0266,0.50229 -0.0801,0.7276 -0.0535,0.22532 -0.13389,0.42211 -0.24081,0.59015 -0.10694,0.16421 -0.24622,0.29416 -0.41806,0.38964 -0.17186,0.0916 -0.37425,0.13746 -0.6072,0.13746 -0.4239,0 -0.75812,-0.15286 -1.00253,-0.45837 -0.24441,-0.30934 -0.36638,-0.76791 -0.36638,-1.37511 0,-0.25205 0.0247,-0.48854 0.0744,-0.71004 0.0535,-0.2215 0.13575,-0.41456 0.2465,-0.57877 0.11075,-0.16804 0.25189,-0.29985 0.42375,-0.39533 0.17184,-0.0955 0.37983,-0.14314 0.62425,-0.14314 z" />
    </g>
    <path
       id="rect1124"
       style="fill:#000000;stroke-width:2.129"
       d="m 11.756236,5.2250308 c -2.7172221,1.9e-4 -4.9199321,2.20289 -4.9201121,4.9201102 -1.01e-4,2.71743 2.202689,4.92044 4.9201121,4.92063 2.717624,10e-5 4.920732,-2.20301 4.920629,-4.92063 -1.81e-4,-2.7174202 -2.203204,-4.9202102 -4.920629,-4.9201102 z m 17.309021,0.57464 c -4.774487,0.004 -8.808312,1.0295 -8.752954,4.9046102 0.09143,6.40016 5.942613,10.14876 9.416998,11.52022 3.474381,1.37148 6.400575,4.93719 1.006137,6.30867 -5.394433,1.37146 -11.520742,2.46858 -11.520742,2.46858 -2.755872,1.27078 -5.644259,4.0506 -2.229322,5.49217 l -2.361095,6.72672 1.777667,0.62374 2.286168,-6.51434 2.09496,6.24562 1.78594,-0.59893 -1.916164,-5.71386 c 0.950278,0.0874 2.045002,0.13756 3.316595,0.139 0,0 16.366215,1.00614 17.097664,-6.85694 0.731447,-7.86309 -4.480315,-14.90362 -8.320422,-15.26936 -3.840108,-0.36571 1.097366,-4.11432 3.108855,-2.46858 2.011483,1.64577 9.417554,21.30365 13.440517,18.74356 4.022981,-2.56008 7.131716,-13.53211 8.046025,-11.24634 0.914318,2.28579 1.645311,12.43501 5.393986,10.05778 3.748675,-2.37719 5.486384,-12.34325 10.423653,-14.53761 4.93728,-2.19434 6.400009,-2.10319 7.405755,-2.01176 -12.74606,11.36019 -14.950977,37.71185 11.52022,36.4815 15.543282,-1.18865 14.714982,-22.24295 14.354692,-24.68688 -0.43417,-2.94496 -4.47984,-6.30865 -4.47984,-6.30865 l 10.42314,-0.2744 c 0,0 0.54872,18.1953 5.57743,19.56676 5.02871,1.37147 8.22959,5.44425 21.76043,4.5713 8.50309,-0.54859 11.6117,-2.74298 11.6117,-2.74298 l -4.11448,-4.20595 c 0,0 -21.66896,4.29736 -22.94898,-1.0971 -1.28005,-5.39441 -7.13187,-22.21776 -7.13187,-22.21776 0,0 -20.846329,1.55455 -27.520802,-0.73122 C 82.942653,9.8814608 70.965242,7.4124208 67.582286,9.7896108 64.199337,12.166811 64.016103,22.590021 62.73607,19.024181 61.456034,15.458391 57.61633,3.3895108 54.599099,8.6925208 51.581872,13.995521 51.947567,26.247521 49.29606,19.664451 46.644565,13.081431 45.547218,7.5041208 38.41559,6.5898008 c -2.674358,-0.34287 -5.901729,-0.75005 -8.886278,-0.78755 -0.155447,-0.002 -0.310038,-0.003 -0.464055,-0.003 z M 90.123538,19.540431 c 0.0952,-8.8e-4 0.19048,-6e-5 0.28577,0.002 2.52929,0.0564 4.896053,1.17111 6.666273,3.13986 4.064209,4.51983 3.972819,12.25249 -0.20412,17.2713 -4.177113,5.01879 -10.858053,5.42297 -14.922091,0.90279 -4.064066,-4.52002 -3.97244,-12.25267 0.204634,-17.2713 2.125104,-2.55314 5.018377,-4.01747 7.969534,-4.04472 z m -70.268572,12.1636 a 1.0036421,1.0036421 0 0 1 1.003556,1.00356 1.0036421,1.0036421 0 0 1 -1.003557,1.00356 1.0036421,1.0036421 0 0 1 -1.003555,-1.00356 1.0036421,1.0036421 0 0 1 1.003556,-1.00356 z m -1.293462,2.20659 a 1.0036421,1.0036421 0 0 1 1.004076,1.00355 1.0036421,1.0036421 0 0 1 -1.004074,1.00407 1.0036421,1.0036421 0 0 1 -1.003555,-1.00407 1.0036421,1.0036421 0 0 1 1.003553,-1.00355 z" />
  </g>
</svg>
