<?xml version="1.0" encoding="UTF-8" standalone="no"?>
<!-- Created with Inkscape (http://www.inkscape.org/) -->

<svg
   width="66mm"
   height="67mm"
   viewBox="0 0 66 67"
   version="1.1"
   id="svg5"
   inkscape:version="1.2.2 (732a01da63, 2022-12-09)"
   sodipodi:docname="SWOL Logo - Copie.svg"
   xmlns:inkscape="http://www.inkscape.org/namespaces/inkscape"
   xmlns:sodipodi="http://sodipodi.sourceforge.net/DTD/sodipodi-0.dtd"
   xmlns="http://www.w3.org/2000/svg"
   xmlns:svg="http://www.w3.org/2000/svg">
  <sodipodi:namedview
     id="namedview7"
     pagecolor="#505050"
     bordercolor="#eeeeee"
     borderopacity="1"
     inkscape:showpageshadow="0"
     inkscape:pageopacity="0"
     inkscape:pagecheckerboard="0"
     inkscape:deskcolor="#505050"
     inkscape:document-units="mm"
     showgrid="false"
     inkscape:zoom="1.7469907"
     inkscape:cx="174.58593"
     inkscape:cy="133.086"
     inkscape:window-width="1920"
     inkscape:window-height="1001"
     inkscape:window-x="-9"
     inkscape:window-y="-9"
     inkscape:window-maximized="1"
     inkscape:current-layer="layer1" />
  <defs
     id="defs2" />
  <g
     inkscape:label="Calque 1"
     inkscape:groupmode="layer"
     id="layer1">
    <path
       id="rect3278"
       style="stroke-width:1.4903"
       d="m 14.084878,1.66614 c -6.9640087,0 -12.5702917,5.606283 -12.5702917,12.570292 v 38.468453 c 0,6.964009 5.606283,12.570292 12.5702917,12.570292 h 38.46845 c 6.96401,0 12.57029,-5.606283 12.57029,-12.570292 V 14.236432 c 0,-0.132031 -0.006,-0.262748 -0.01,-0.393774 -11.61548,1.411218 -14.53844,2.003798 -30.282899,1.761132 -5.797667,3.8e-5 -10.497747,2.831563 -10.497551,6.324162 1.42e-4,3.492399 4.700122,6.323597 10.497551,6.323645 0.21094,-5.7e-4 0.421491,-0.0043 0.632003,-0.01292 v 0.02274 c 0.761453,0.07899 1.315302,0.124969 2.630847,0.174149 11.804639,-2.8e-5 20.529409,7.24123 20.529489,15.343767 -8e-5,8.102602 -9.57028,14.670967 -21.374916,14.670939 -6.130861,1.9e-5 -11.65434,-1.774394 -15.552022,-4.612639 l 0.677995,2.118217 -1.49655,0.479041 -1.463993,-4.571297 C 18.714829,51.138841 18.106297,50.369617 17.60128,49.562442 l -2.547132,6.06888 -1.449007,-0.608231 3.060278,-7.290511 c -0.511917,-1.258167 -0.791669,-2.582989 -0.791683,-3.953247 0.0024,-0.677021 0.07296,-1.353316 0.211357,-2.02365 2.096831,-3.925136 4.91998,-5.88028 10.629325,0 -0.310313,0.697273 -0.468837,1.421919 -0.469738,2.150257 -9.4e-5,4.121279 4.926363,7.462153 11.003462,7.462077 6.076956,-5.7e-5 11.003556,-3.340893 11.003456,-7.462077 10e-5,-4.121145 -4.92649,-7.462537 -11.003456,-7.462594 -0.598488,0.0015 -1.195344,0.03755 -1.78542,0.104903 v 0.04754 C 24.268138,36.546489 15.229664,30.107926 15.227264,22.181165 15.227327,14.218324 24.343554,7.762483 35.589329,7.762407 46.835248,7.76234 49.472488,7.591092 52.565028,7.528312 c 4.49024,-0.128386 6.53642,0.18495 9.00979,0.350366 l 1.96732,0.236162 c -2.1431,-3.852228 -6.25095,-6.448702 -10.98899,-6.448702 z m 4.242119,39.274088 a 1.2294949,1.2294949 0 0 0 -1.229899,1.229383 1.2294949,1.2294949 0 0 0 1.229899,1.229382 1.2294949,1.2294949 0 0 0 1.229382,-1.229382 1.2294949,1.2294949 0 0 0 -1.229382,-1.229383 z m 2.903698,0.07803 a 1.2294949,1.2294949 0 0 0 -1.229899,1.229899 1.2294949,1.2294949 0 0 0 1.229899,1.228865 1.2294949,1.2294949 0 0 0 1.229383,-1.228865 1.2294949,1.2294949 0 0 0 -1.229383,-1.229899 z" />
  </g>
</svg>
